HIERARCHY
ROOT Hips
{
	OFFSET -14.64140 90.27770 -84.91600
	CHANNELS 6 Xposition Yposition Zposition Zrotation Xrotation Yrotation
	JOINT Spine
	{
		OFFSET 0.00000 13.20850 -1.60436
		CHANNELS 3 Zrotation Xrotation Yrotation
		JOINT Spine1
		{
			OFFSET 0.00000 8.61716 0.00000
			CHANNELS 3 Zrotation Xrotation Yrotation
			JOINT Spine2
			{
				OFFSET 0.00000 8.61717 0.00000
				CHANNELS 3 Zrotation Xrotation Yrotation
				JOINT Spine3
				{
					OFFSET 0.00000 8.61717 0.00000
					CHANNELS 3 Zrotation Xrotation Yrotation
					JOINT Neck
					{
						OFFSET 0.00000 11.07920 1.10792
						CHANNELS 3 Zrotation Xrotation Yrotation
						JOINT Neck1
						{
							OFFSET 0.00000 7.08032 0.00000
							CHANNELS 3 Zrotation Xrotation Yrotation
							JOINT Head
							{
								OFFSET 0.00000 7.08031 0.00000
								CHANNELS 3 Zrotation Xrotation Yrotation
								End site
								{
									OFFSET 0.00000 0.00000 0.00000
								}
							}
						}
					}
					JOINT RightShoulder
					{
						OFFSET -0.01000 7.91373 5.19711
						CHANNELS 3 Zrotation Xrotation Yrotation
						JOINT RightArm
						{
							OFFSET -18.41580 0.00000 0.00000
							CHANNELS 3 Zrotation Xrotation Yrotation
							JOINT RightForeArm
							{
								OFFSET -29.11090 0.00000 0.00000
								CHANNELS 3 Zrotation Xrotation Yrotation
								JOINT RightHand
								{
									OFFSET -24.65040 0.00000 0.00000
									CHANNELS 3 Zrotation Xrotation Yrotation
									JOINT RightHandThumb1
									{
										OFFSET -5.35114 -0.85590 3.97906
										CHANNELS 3 Zrotation Xrotation Yrotation
										JOINT RightHandThumb2
										{
											OFFSET -4.52789 0.00000 0.00000
											CHANNELS 3 Zrotation Xrotation Yrotation
											JOINT RightHandThumb3
											{
												OFFSET -2.46976 0.00000 0.00000
												CHANNELS 3 Zrotation Xrotation Yrotation
												End site
												{
													OFFSET 0.00000 0.00000 0.00000
												}
											}
										}
									}
									JOINT RightHandIndex1
									{
										OFFSET -14.26970 0.00000 2.88139
										CHANNELS 3 Zrotation Xrotation Yrotation
										JOINT RightHandIndex2
										{
											OFFSET -5.48836 0.00000 0.00000
											CHANNELS 3 Zrotation Xrotation Yrotation
											JOINT RightHandIndex3
											{
												OFFSET -3.01859 0.00000 0.00000
												CHANNELS 3 Zrotation Xrotation Yrotation
												End site
												{
													OFFSET 0.00000 0.00000 0.00000
												}
											}
										}
									}
									JOINT RightHandMiddle1
									{
										OFFSET -14.26970 0.00000 -0.09147
										CHANNELS 3 Zrotation Xrotation Yrotation
										JOINT RightHandMiddle2
										{
											OFFSET -6.17441 0.00000 0.00000
											CHANNELS 3 Zrotation Xrotation Yrotation
											JOINT RightHandMiddle3
											{
												OFFSET -3.56743 0.00000 0.00000
												CHANNELS 3 Zrotation Xrotation Yrotation
												End site
												{
													OFFSET 0.00000 0.00000 0.00000
												}
											}
										}
									}
									JOINT RightHandRing1
									{
										OFFSET -12.69180 0.00000 -3.06433
										CHANNELS 3 Zrotation Xrotation Yrotation
										JOINT RightHandRing2
										{
											OFFSET -5.62556 0.00000 0.00000
											CHANNELS 3 Zrotation Xrotation Yrotation
											JOINT RightHandRing3
											{
												OFFSET -3.56744 0.00000 0.00000
												CHANNELS 3 Zrotation Xrotation Yrotation
												End site
												{
													OFFSET 0.00000 0.00000 0.00000
												}
											}
										}
									}
									JOINT RightHandPinky1
									{
										OFFSET -11.11390 0.00000 -6.03719
										CHANNELS 3 Zrotation Xrotation Yrotation
										JOINT RightHandPinky2
										{
											OFFSET -4.52789 0.00000 0.00000
											CHANNELS 3 Zrotation Xrotation Yrotation
											JOINT RightHandPinky3
											{
												OFFSET -2.46976 0.00000 0.00000
												CHANNELS 3 Zrotation Xrotation Yrotation
												End site
												{
													OFFSET 0.00000 0.00000 0.00000
												}
											}
										}
									}
								}
							}
						}
					}
					JOINT LeftShoulder
					{
						OFFSET 0.01000 7.91373 5.19711
						CHANNELS 3 Zrotation Xrotation Yrotation
						JOINT LeftArm
						{
							OFFSET 18.41580 0.00000 0.00000
							CHANNELS 3 Zrotation Xrotation Yrotation
							JOINT LeftForeArm
							{
								OFFSET 29.11090 0.00000 0.00000
								CHANNELS 3 Zrotation Xrotation Yrotation
								JOINT LeftHand
								{
									OFFSET 24.65040 0.00000 0.00000
									CHANNELS 3 Zrotation Xrotation Yrotation
									JOINT LeftHandThumb1
									{
										OFFSET 5.35114 -0.85590 3.97906
										CHANNELS 3 Zrotation Xrotation Yrotation
										JOINT LeftHandThumb2
										{
											OFFSET 4.52789 0.00000 0.00000
											CHANNELS 3 Zrotation Xrotation Yrotation
											JOINT LeftHandThumb3
											{
												OFFSET 2.46977 0.00000 0.00000
												CHANNELS 3 Zrotation Xrotation Yrotation
												End site
												{
													OFFSET 0.00000 0.00000 0.00000
												}
											}
										}
									}
									JOINT LeftHandIndex1
									{
										OFFSET 14.26970 0.00000 2.88139
										CHANNELS 3 Zrotation Xrotation Yrotation
										JOINT LeftHandIndex2
										{
											OFFSET 5.48836 0.00000 0.00000
											CHANNELS 3 Zrotation Xrotation Yrotation
											JOINT LeftHandIndex3
											{
												OFFSET 3.01859 0.00000 0.00000
												CHANNELS 3 Zrotation Xrotation Yrotation
												End site
												{
													OFFSET 0.00000 0.00000 0.00000
												}
											}
										}
									}
									JOINT LeftHandMiddle1
									{
										OFFSET 14.26970 0.00000 -0.09147
										CHANNELS 3 Zrotation Xrotation Yrotation
										JOINT LeftHandMiddle2
										{
											OFFSET 6.17440 0.00000 0.00000
											CHANNELS 3 Zrotation Xrotation Yrotation
											JOINT LeftHandMiddle3
											{
												OFFSET 3.56744 0.00000 0.00000
												CHANNELS 3 Zrotation Xrotation Yrotation
												End site
												{
													OFFSET 0.00000 0.00000 0.00000
												}
											}
										}
									}
									JOINT LeftHandRing1
									{
										OFFSET 12.69180 0.00000 -3.06433
										CHANNELS 3 Zrotation Xrotation Yrotation
										JOINT LeftHandRing2
										{
											OFFSET 5.62556 0.00000 0.00000
											CHANNELS 3 Zrotation Xrotation Yrotation
											JOINT LeftHandRing3
											{
												OFFSET 3.56744 0.00000 0.00000
												CHANNELS 3 Zrotation Xrotation Yrotation
												End site
												{
													OFFSET 0.00000 0.00000 0.00000
												}
											}
										}
									}
									JOINT LeftHandPinky1
									{
										OFFSET 11.11390 0.00000 -6.03719
										CHANNELS 3 Zrotation Xrotation Yrotation
										JOINT LeftHandPinky2
										{
											OFFSET 4.52789 0.00000 0.00000
											CHANNELS 3 Zrotation Xrotation Yrotation
											JOINT LeftHandPinky3
											{
												OFFSET 2.46976 0.00000 0.00000
												CHANNELS 3 Zrotation Xrotation Yrotation
												End site
												{
													OFFSET 0.00000 0.00000 0.00000
												}
											}
										}
									}
								}
							}
						}
					}
					JOINT pCube4
					{
						OFFSET 0.00000 10.91090 1.10792
						CHANNELS 3 Zrotation Xrotation Yrotation
						End site
						{
							OFFSET 0.00000 0.00000 0.00000
						}
					}
				}
			}
		}
	}
	JOINT RightUpLeg
	{
		OFFSET -9.98441 0.00000 0.00000
		CHANNELS 3 Zrotation Xrotation Yrotation
		JOINT RightLeg
		{
			OFFSET 0.00000 -42.11790 0.00000
			CHANNELS 3 Zrotation Xrotation Yrotation
			JOINT RightFoot
			{
				OFFSET 0.00000 -45.00020 -0.00001
				CHANNELS 3 Zrotation Xrotation Yrotation
				JOINT RightForeFoot
				{
					OFFSET 0.00000 -3.74820 0.00000
					CHANNELS 3 Zrotation Xrotation Yrotation
					JOINT RightToeBase
					{
						OFFSET 0.00000 0.06325 14.43120
						CHANNELS 3 Zrotation Xrotation Yrotation
						End site
						{
							OFFSET 0.00000 0.00000 0.00000
						}
					}
				}
			}
		}
	}
	JOINT LeftUpLeg
	{
		OFFSET 9.98441 0.00000 0.00000
		CHANNELS 3 Zrotation Xrotation Yrotation
		JOINT LeftLeg
		{
			OFFSET 0.00000 -42.11800 0.00000
			CHANNELS 3 Zrotation Xrotation Yrotation
			JOINT LeftFoot
			{
				OFFSET 0.00000 -45.00070 0.00000
				CHANNELS 3 Zrotation Xrotation Yrotation
				JOINT LeftForeFoot
				{
					OFFSET 0.00000 -3.74824 0.00000
					CHANNELS 3 Zrotation Xrotation Yrotation
					JOINT LeftToeBase
					{
						OFFSET 0.00000 0.06325 14.43110
						CHANNELS 3 Zrotation Xrotation Yrotation
						End site
						{
							OFFSET 0.00000 0.00000 0.00000
						}
					}
				}
			}
		}
	}
}
MOTION
Frames: 4
Frame Time: 0.050000
0.04763442031223894 0.010921181829500127 -0.0324754334218944 -0.00924221981841786 0.04030396405509396 0.007475997090995563 -2.4519618293866254 1.8409097888963732 -0.7972050371695852 -0.9416843120486887 3.6151869263223984 0.3915692709671948 -1.2103594219402365 -1.5942466775996191 0.02325523973301275 -0.4189078952807053 0.0003736889110786453 -0.7194299540801445 -0.1729526008838021 12.786989047063608 0.24117376327008638 -0.2337875688446875 0.17480938201832225 -2.1810258626844528 -0.14290021913339712 -14.558538199872999 -0.13139414945099945 -5.708317346651508 2.102653228913515 -13.157789657855579 61.85033923794567 0.31218189825061665 26.175854709020715 0.5444015939620639 -3.0056593656849397 99.24396383695584 9.827322557644074 -0.2908535579892619 -0.6049834248009595 4.49065429507593 -0.09867599322937895 -1.6064735157212056 -0.041538802749666794 0.03797126792072628 -56.228731608359226 -0.025867420825711668 0.010179360414994332 -56.21314783342082 -38.748977466670716 0.004449279410805809 -0.02028910631340412 -0.04471628307531483 0.02842526581716505 0.043190372535010534 0.011815648295318386 -0.02786240278760566 0.027274625632608074 -36.68312990383655 0.018328495906711196 -0.025840774878391464 -0.0006083494541526598 0.010694776481421158 -0.010172395894614378 0.021194488244445628 0.018693254640230875 -0.03775044526430584 -19.709256017866082 -0.027923772936553196 -0.0029588852586423663 -0.025537687571367627 0.037989698867326636 0.04030897718411021 0.002654843851333712 -0.016808011719887866 -0.04101915215758046 24.094736792016423 -0.031728105031443035 -0.045511965007268035 28.876997205265432 -0.04711930426952964 -0.026888590120541917 28.844242499994216 0.02964318937751233 -0.04379315129003933 6.275506424711845 1.4989889559409533 12.525127706811116 -63.71779410170428 13.63767319934849 -19.498624557972924 -3.6535921744240265 -7.790723496011486 -85.65046523962727 -3.4966160485261333 1.671449452681471 -3.029194624028105 -0.5020196516559738 0.08266803639088185 -8.11978884544785 0.019611504423048022 0.01907492335790138 44.57696324071529 0.038830317090739995 -0.04179459818594941 44.57762803029399 12.503129585199373 -0.017437187890669403 -0.04906001642813683 -0.013665776478555729 0.029402285456913202 -0.03261969937784469 -0.010180659196639293 -0.014167813716473335 -0.021344102888331974 11.074527287773478 -0.009460682259383764 -0.030631461330557542 -0.03748807796442272 0.04500396426260174 0.019898728376356593 -0.03203561189201058 -0.00772609703360047 -0.04810789250489044 4.742101172727234 0.008917827051007004 0.01725308216545682 -0.0072160163440486745 -0.013396168820294312 -0.04170182105767938 -0.03224500882069061 -0.04938365324134025 -0.03830620123353664 -5.648143387823248 -0.04782003956518271 0.047234204086169594 -6.703715001806599 0.002162882866581998 0.020425404524602547 -6.695758248693595 0.014248598794624623 -0.04418260820974928 0.020496402087457982 -0.04758544560515816 0.04396202703588852 8.040244201463636 3.4958056910794957 -19.22747805440496 -0.007831493294129473 10.442943165278537 -0.0345853107993013 -5.605200232215224 -15.66715836276103 3.193172472550143 0.03302801400183755 0.016290197526599662 -0.015523421343380679 0.03215628073985177 4.648306526156069 0.04261651891477711 12.487311246787076 -8.232579490439187 6.902298795055851 0.005570330439353854 46.38847413177806 0.0010045331500158107 -4.334325968314722 -14.721211630855612 -3.855618531665073 -0.0021667907953492314 -0.011291078455486445 -0.042240930269895345 -0.004073131323802523 -10.747558847527294 -0.015154526040347878 
0.0023569641350376447 0.0027459044601522748 0.007943318525033926 0.022522210355668256 -0.027883287502115564 0.02303367376419139 -2.5516378161953104 2.2721360645498394 -0.7347351661351958 -0.9556773878205725 3.6637273949624105 0.3732447644939419 -1.1505859308063306 -1.4382626769292184 -0.1327547799780568 -0.40860362516470017 0.06603555860064883 -0.7394624733066276 -0.31876383860338625 12.512244604103167 0.24023528946577716 -0.2437790490474568 0.05660122532381289 -2.1176880419596222 -0.25317947439155025 -14.60045236496499 -0.11525724009640562 -5.023716575308952 1.9989924364846396 -12.902465475643655 61.99117124118263 0.7796100345177647 25.64351698519246 1.2665927155437677 -2.103048046397631 97.29915032053393 10.532349034635361 -0.34613030272355616 -1.0524255666248028 4.50835330783923 -0.13454712723199497 -1.590820908095492 0.01223827937659483 -0.03458800097937878 -56.212773992404756 0.0030633100091283652 0.009055113391568793 -56.22381663600258 -38.782236389931796 0.008787611811873224 -0.030401534741335667 0.04829121677591204 -0.012733365891008054 -0.019838161535379876 0.016943317460450403 0.03772880004641308 0.004096429095872861 -36.66152200180474 -0.017184618279898554 0.02338231407578982 -0.04474180620930845 -0.01781052209896172 -0.009772751544947136 0.024565467254560196 0.003431212855287072 -0.015012579376955318 -19.756020015868533 0.04801722150906586 0.04625838832547401 0.015870639368915977 -0.015889202848294957 0.006612729878237109 -0.03371455436988667 0.03023970106070794 -0.016341260872876108 24.071093366506428 -0.009797998092192244 -0.011945083611446103 28.90466514358991 -0.02453778662193999 -0.0313588843057127 28.82155625259754 -0.023561069448307232 0.0420462909952886 5.789992280172012 1.4667390761781829 12.310380446527224 -62.89308445630382 13.470053717401484 -20.80213973387936 -3.8690718786033744 -6.724515976384063 -86.68487297490228 -4.134214158433159 1.53966225658924 -2.9770996261509763 -0.46145724623893775 0.07241781018529275 -8.110717639496489 -0.011661782952182762 0.012199326189943314 44.583098663949805 0.0026610611597479264 0.026953322156868985 44.544185159144575 12.462830395798836 -0.021255069542105563 -0.038074435767342665 0.026587206140209575 -0.028593054740370414 -0.026497731193521234 0.005952395712096854 -0.013102804664589447 -0.004138374125556287 11.129142829234496 -0.012533566886559338 -0.016092140723854537 -0.008283542176251902 -0.031817780457269816 0.00684508166352192 -0.019043774132571908 -0.008760989827035817 0.04302017794267882 4.78257382763057 -0.048764331303143414 0.028756626477994325 -0.03659422770872582 0.012328400721972664 -0.04339544308697288 0.02747536936747491 0.023590944926383573 0.0006487699633910877 -5.64014962707648 -0.0007579778180396268 -0.021323922451624282 -6.696607085184125 -0.021183324583687116 0.002024175977604838 -6.7044366642518245 -0.011587253713793115 -0.009725024039710126 -0.042032498417685235 0.024568891299249808 -0.011945606293046475 8.00155111731815 3.5066904468802926 -19.178285062879272 -0.012116577634136571 10.366222935386237 0.04325502441366953 -5.5887518306165935 -15.66708072227362 3.1641676173258295 0.024047089054363067 0.04969876696752268 -0.021686164848776945 -0.015656398465820707 4.718031211512974 0.012515371916443084 12.45360845826403 -8.197407158795045 6.905411746529861 -0.047866982950054406 46.40477433048459 -0.03685132635184489 -4.301081511593055 -14.736233851265665 -3.873807555964818 -0.04375558392629318 -0.019126893992258035 0.020320693479284706 -0.04171202416182066 -10.710288306666492 0.003421653030755035 
0.04502730569231031 0.044649446736992934 0.022557081892305892 0.0019143996546212038 0.04646942179014877 0.017043263441861214 -2.838561841097657 2.9384257971043426 -0.6803174107121502 -0.9585352333499063 3.689361306156226 0.3686356856525692 -1.125120955019165 -1.2611798717219973 -0.21059329584197067 -0.3031340200881014 0.10421303345542002 -0.7430524904282223 -0.34049917653406525 12.060609811974288 0.23972234602979436 -0.29524487943750266 -0.15039870042717562 -2.285405226130384 -0.2900092068984861 -14.773397767800065 -0.1461458719612697 -4.061268869382384 1.7668231183553795 -12.647405917982676 62.02184447004357 1.9747070436723817 24.894875808470825 1.6961323233341763 -1.1461521171022306 94.83685606991908 11.494316018817164 -0.38011265543950656 -1.7542360799272276 4.48530308893998 -0.08466307699477282 -1.603180954059492 0.03138831282810587 -0.03388831305297399 -56.25511051692648 -0.011774713722354101 0.029417882927049468 -56.20872351230574 -38.765300419966955 -0.0014145442842731842 0.0158092591065072 -0.03975731778890248 -0.0010987573208222144 0.0481141350165113 -0.04641076633446764 0.001574320328602409 0.040002702139574416 -36.721474952877124 0.00273307141030484 -0.0342524585568968 0.004442832204861622 0.03882040947892586 0.0006685411718807506 0.013158385909245408 0.03683094748603757 -0.001408336060908536 -19.793007901904023 0.04448407946416028 0.042677202897172965 -0.0061951766160884564 -0.04036943677001275 0.030856631407406073 -0.0019653130841207783 -0.010817516230534676 0.044420768433092866 24.091199833813377 -0.016299876164323684 -0.009675098136892745 28.91179441920517 -0.012609839531478872 -0.01635946848369197 28.87002021277819 -0.04705029679133875 0.0021939796963136972 5.06431903062918 1.3170476991654525 12.146153134527916 -62.03790167211413 14.125965646700225 -21.43445882332939 -3.4135796783976895 -6.01440152959495 -86.6044965602698 -4.866255427102204 1.5279560572603694 -2.79231207877179 -0.47477511667213557 0.03178803580227339 -8.15050000575373 -0.003196675228212786 -0.008877364199240859 44.61691268813893 0.04517281946167718 -0.02396259840835769 44.5890276849483 12.447762135197191 0.014289651999983643 0.0385853327573453 0.015961677697554674 0.009884492214562777 -0.013723488634903004 0.04463911732066424 -0.02818796858429972 0.025095110705676334 11.076739320847345 -0.011858501926284773 -0.006797301819666068 0.03477555500119961 0.031963461068487416 0.03572484079883385 0.021313211920975496 -0.024484748882743986 0.010530980745444117 4.784642235005265 -0.014441028075184329 0.031271129589316465 0.0094380432961196 -0.029580494499658862 0.04192849084368197 -0.03635298522318559 0.025393683581054698 0.021464410278849655 -5.610724849416531 -0.04740479895293208 -0.033956941503877534 -6.686413150445403 0.04785057039529558 0.04012058175651505 -6.770110779305049 0.03613593541321049 -0.01956220094891432 -0.022678814595971 -0.02091929144683326 -0.01025055154193368 7.999665778563514 3.5372100774730346 -19.177280273409803 0.0044717645413931105 10.423470410066212 -0.007364538953720037 -5.632064156632328 -15.644352171286439 3.1738360533046306 -0.016350652595094498 0.027093901732142447 0.006005202102714483 0.04560782891045322 4.679613815141888 -0.012234483686041778 12.451659947926412 -8.222323258281374 6.860912948042263 0.03975682012978941 46.372238664905616 -0.006017702988779162 -4.367940989068139 -14.786141712213917 -3.798950128804523 0.03416801123053548 0.03372722633911614 -0.022915259952664642 0.04548445185277456 -10.776472342906079 0.028350827139592267 
-0.03424655696905609 0.017618471126262258 0.03153601527671301 0.019718224561742242 -0.03170758902065209 -0.04344258741569653 -3.2205957377297056 3.739808403208057 -0.6534931929238615 -0.9767200276107905 3.6779949166379997 0.3992555413178659 -1.1099057816945326 -0.9324384674821683 -0.306666638969854 -0.2495576326828022 0.25072092540336527 -0.8178367447715982 -0.4050834721878689 11.537974147953562 0.2343532636235543 -0.34658934524446333 -0.32319746213905676 -2.590648130514755 -0.27697324713998456 -14.946792524681621 -0.1955630457905384 -2.99602620308045 1.4230378448661225 -12.325972178642564 61.82445285324136 3.348181246617162 24.588748442751854 1.793467528354406 -0.1875906426046469 92.37764272922392 12.640915647519027 -0.3710589974851533 -2.543314525062096 4.531054387665999 -0.10328829188586482 -1.5862092250999618 0.04090085881365213 0.013706873490550633 -56.194662630424595 0.009255674924990574 0.019946632175520684 -56.26281419375924 -38.79551045680628 -0.02033116168462368 0.03547128480859163 0.03854138987565201 -0.032460600973410976 0.00024656275351653495 -0.03494363698192025 0.04738927270715865 -0.00427736994120929 -36.72973091927024 -0.04424066859579087 0.044246367989876 -0.010038627976845262 -0.04927365456052099 -0.039997679541386305 0.005041970221693451 0.004591447569423811 0.00871231722559599 -19.79602174278868 -0.017556129092991965 0.02741920365776414 -0.013732659370161198 -0.004994240467837645 -0.02335520147346453 -0.0337559408923372 0.005932601218147041 -0.01889853484902355 24.03351994844703 0.002194428838369309 -0.03941644886353085 28.879958150400935 0.008019804676753318 -0.006663083929999723 28.84498065187399 -0.015935121510379676 0.024347576177827786 3.9782348123839704 1.1442942804392804 11.81566073150425 -60.96518704523765 15.081805790017112 -21.858523420602275 -2.4144921069641425 -5.571139862984622 -85.67180431234534 -5.79701711985523 1.4787282104995891 -2.5304569401047434 -0.520843370185105 0.04796800129305184 -8.104897025401176 0.049144090515726185 -0.04764675793338882 44.56136873194357 -0.02712452228099631 0.030111611635555695 44.54196721051074 12.471562183720726 0.029587979906085037 -0.0030586524739757777 -0.016534149408926727 0.026391324565415437 0.02225319858846154 -0.021134410658201982 0.026663599669833886 0.04697637880980028 11.071447813351584 0.026090969814828866 0.04314156885386237 -0.039122437910555585 -0.03169242626931692 -0.03260821682379154 -0.03404984790111814 -0.025649476133701957 -0.024897794247552715 4.785288506170408 -0.025569187354888973 -0.036478621373991355 0.048697625941747744 0.01959872678267888 0.02433929073027205 -0.028518582526093086 -0.019376250570337167 -0.0003245494201616491 -5.630849772010585 0.016183192211642997 0.0039169129624928335 -6.762133672670064 0.004259350088623762 0.005285298031967039 -6.7260433506628665 -0.03304130672317106 0.012334499170083413 -0.02741950440787392 -0.0033501652524774014 0.00907997369015874 8.003846444612597 3.535460323017424 -19.26118947668925 0.0014936555881359015 10.365503365139809 -0.011149497557938964 -5.651276942710274 -15.648892320976708 3.164272525880194 -0.022213443306669984 -0.02401145464978834 0.04742461380230506 0.009205808090717537 4.660376270731303 -0.03727584155149667 12.447330203930566 -8.248179391520745 6.863763760977857 0.015474578600388889 46.37127307317396 0.02680086028698482 -4.326147354225888 -14.724276872598749 -3.8346012097530724 -0.021780706045383454 -0.034210285295175655 -0.0005057121903603054 0.03729604164974427 -10.738789322055055 0.00019135056408076508 
